<svg xmlns="http://www.w3.org/2000/svg" viewBox="0 0 72.47 72.47">
  <defs>
    <style>
      .cls-1 {
        fill: #e8e6e7;
      }

      .cls-2 {
        fill: #929293;
      }
    </style>
  </defs>
  <circle class="cls-1" cx="36.24" cy="36.24" r="36.24"/>
  <g>
    <path class="cls-2" d="M31.76,50.62c0,1.7-1.91,3.07-4.28,3.07s-4.27-1.37-4.27-3.07,1.91-1.13,4.27-1.13S31.76,48.93,31.76,50.62Z"/>
    <path class="cls-2" d="M22.34,36.16c.42,1.64-2.36,3.31-4.72,3.31s-5-2-4.5-3.66,2.14-.34,4.5-.34S21.9,34.43,22.34,36.16Z"/>
    <path class="cls-2" d="M44.79,36.16c.42,1.64-2.36,3.31-4.73,3.31s-5-2-4.5-3.66,2.14-.34,4.5-.34S44.34,34.43,44.79,36.16Z"/>
  </g>
  <g>
    <circle class="cls-2" cx="59.85" cy="29.01" r="3.23"/>
    <circle class="cls-2" cx="35.85" cy="29.01" r="3.23"/>
    <path class="cls-2" d="M34.51,40h26.3a.88.88,0,0,1,.88,1c-.42,2.58-2.6,9.12-14,9.12S34,43.57,33.62,41A.89.89,0,0,1,34.51,40Z"/>
  </g>
</svg>
